<svg xmlns="http://www.w3.org/2000/svg" width="69.531" height="47.919" viewBox="0 0 69.531 47.919"><defs><style>.a{fill:#047e9f;}</style></defs><g transform="translate(0)"><path class="a" d="M556.267,57.906c-.437-.221-.656-.44-1.093-.658a2.769,2.769,0,0,1,0-3.937l5.25-5.47a2.731,2.731,0,0,1,2.843-.875c.437.219.656.437,1.093.656a3.257,3.257,0,0,1,.874,1.968,2.376,2.376,0,0,1-.874,1.968l-5.25,5.47a2.727,2.727,0,0,1-2.842.877" transform="translate(-523.262 -44.12)"/><path class="a" d="M571.186,51.833a6.646,6.646,0,0,0-1.093-1.531,3.569,3.569,0,0,0-5.25,0l-8.313,8.313a4.04,4.04,0,0,0-1.093,3.5v.219L555.874,84a1.969,1.969,0,0,0,3.938,0l.437-19.037c.437-.219.656-.437,1.093-.656l6.343,4.377-4.594,5.689a2.341,2.341,0,0,0,.656,3.5,2.773,2.773,0,0,0,3.719-.658l5.906-7.876a2.694,2.694,0,0,0,.437-2.187,2.535,2.535,0,0,0-1.093-1.533l-7.655-5.251,4.373-4.374,4.375,3.718a1.658,1.658,0,0,0,.875.437c.219,0,.437.219.656.219H583a1.75,1.75,0,0,0,0-3.5H575.78Z" transform="translate(-521.995 -41.329)"/><path class="a" d="M565.43,68.163A10.061,10.061,0,1,1,555.37,58.1a10.178,10.178,0,0,1,10.06,10.065" transform="translate(-534.395 -30.31)"/><path class="a" d="M582.685,68.163A10.061,10.061,0,1,1,572.625,58.1a10.178,10.178,0,0,1,10.06,10.065" transform="translate(-513.153 -30.31)"/><path class="a" d="M572.2,48.711s-2.405-3.064-5.25-3.064a12.378,12.378,0,0,0-5.468,1.531l.656,2.189.877.437a3.5,3.5,0,0,0,1.093,3.5,3.569,3.569,0,0,0,5.25,0,4.185,4.185,0,0,0,.875-4.156c1.093-.219,1.968-.437,1.968-.437" transform="translate(-514.481 -45.647)"/><path class="a" d="M540.417,60.631,569.265,55.6l-7.437-7.439L559.2,50.785l-3.937-4.157-14,14" transform="translate(-540.417 -44.44)"/></g></svg>