<svg id="Layer_1" data-name="Layer 1" xmlns="http://www.w3.org/2000/svg" viewBox="0 0 50 50"><defs><style>.cls-1{fill:#047e9f;}</style></defs><g id="Page-2"><g id="Hiking"><path class="cls-1" d="M27.15,6a3,3,0,1,1,3,3A3,3,0,0,1,27.15,6Zm11.6,16.52a1.07,1.07,0,0,1-.62.56,1.09,1.09,0,0,1-.83,0l-6.5-3a1.07,1.07,0,0,1-.36-.28l-.1-.09a1.06,1.06,0,0,1-.42-.52l-.71-1.93a.5.5,0,0,0-.44-.33.51.51,0,0,0-.48.29l-3.42,7.27a.5.5,0,0,0,0,.38l2.72,7.66a5.28,5.28,0,0,1,.1,1.24v.36l.39,10.21a1.61,1.61,0,0,1-.43,1.16A1.68,1.68,0,0,1,26.5,46L26,46a1.61,1.61,0,0,1-1.68-1.56l-.41-10.76a.54.54,0,0,0-.05-.21l-2-3.92a.49.49,0,0,0-.44-.27h0a.48.48,0,0,0-.44.29L13.85,44.48a1.63,1.63,0,0,1-2.16.79l-.45-.21a1.64,1.64,0,0,1-.78-2.18l8.8-21.07,4.69-10a3.11,3.11,0,0,1,4.13-1.48,3.29,3.29,0,0,1,1.12.89,1.12,1.12,0,0,1,.3.43l.08.22a2.52,2.52,0,0,1,.15.42l2.07,5.63a.51.51,0,0,0,.26.28l6.16,2.86a1.07,1.07,0,0,1,.56.62A1.09,1.09,0,0,1,38.75,22.53Z"/><path class="cls-1" d="M19.06,6.53a2.85,2.85,0,0,0-2.58,1.63L12.65,16.3a2.84,2.84,0,0,0-.1,2.18A2.89,2.89,0,0,0,14,20.09a2.92,2.92,0,0,0,3.79-1.37l3.83-8.13a2.84,2.84,0,0,0,.09-2.18,2.83,2.83,0,0,0-2.66-1.88Z"/><path id="Fill-377" class="cls-1" d="M39.15,46.5l-1.22-.17,4-28.22,1.22.17Z"/></g></g></svg>