<svg xmlns="http://www.w3.org/2000/svg" width="69.531" height="63.898" viewBox="0 0 69.531 63.898"><defs><style>.a{fill:#047e9f;}</style></defs><g transform="translate(0)"><path class="a" d="M268.725,69.189c4.831-3.219,3.758-14.222,12.88-13.417-6.44,1.878-2.414,15.563-12.88,13.417" transform="translate(-268.725 -31.32)"/><path class="a" d="M288.824,60.937a10.947,10.947,0,0,0,9.659-6.172" transform="translate(-233.813 -32.995)"/><path class="a" d="M330.239,59.813l-9.391-6.172.268-4.563L303.409,67.594h-6.172l-2.685-2.414.8-6.708,2.685,1.878a.986.986,0,0,0,.8.268h.536l6.977-.536a1.481,1.481,0,1,0-.268-2.951l-6.708.536-5.635-5.9a3.877,3.877,0,0,0-1.878-.536c-1.878,0-3.758,1.073-3.758,2.951L286.77,64.912a6.4,6.4,0,0,0,.536,2.414H274.963V83.157l-2.414,3.758v16.9a2.952,2.952,0,1,0,5.9,0V89.329l3.219-4.56V89.6l6.44,14.49h0a2.577,2.577,0,0,0,2.417,1.612,2.688,2.688,0,0,0,2.682-2.685,1.613,1.613,0,0,0-.268-1.073h0l-5.635-13.417,2.685-4.56h15.026v19.586a2.952,2.952,0,1,0,5.9,0V84.233l9.927-20.662s4.563.8,6.44,1.341c1.878.268,3.49,0,4.294-1.609a4.692,4.692,0,0,0-1.344-3.49" transform="translate(-262.083 -42.874)"/><path class="a" d="M282.065,53.555a3.378,3.378,0,1,0,.8-6.709,3.594,3.594,0,0,0-4.023,2.951,3.242,3.242,0,0,0,3.219,3.758" transform="translate(-251.205 -46.811)"/></g></svg>