<svg xmlns="http://www.w3.org/2000/svg" width="54.057" height="58.265" viewBox="0 0 54.057 58.265"><defs><style>.a,.e{fill:#047e9f;}.b,.d{fill:#fff;}.c{fill:#231f20;}.d,.e{stroke:#047e9f;}.e{stroke-linecap:round;stroke-width:2px;}</style></defs><g transform="translate(0 0.922)"><path class="a" d="M423.563,71.505c0,3.063-11.985,5.358-27.028,5.358-14.789,0-27.028-2.55-27.028-5.358,0-3.06,11.985-5.358,27.028-5.358,14.789-.255,27.028,2.3,27.028,5.358" transform="translate(-369.506 -19.52)"/><path class="b" d="M386.766,68.785c0,.765-2.806,1.275-6.375,1.275s-6.375-.51-6.375-1.275,2.8-1.275,6.375-1.275,6.375.51,6.375,1.275" transform="translate(-362.286 -17.309)"/><path class="c" d="M395.471,68.927a6.12,6.12,0,1,1-6.12-6.123,6.041,6.041,0,0,1,6.12,6.123" transform="translate(-347.534 -24.849)"/><path class="d" d="M395.471,68.927a6.12,6.12,0,1,1-6.12-6.123,6.041,6.041,0,0,1,6.12,6.123Z" transform="translate(-347.534 -24.849)"/><path class="e" d="M376.467,99.967V45.451" transform="translate(-358.362 -45.374)"/><path class="a" d="M377.839,45.5c6.63-1.02,14.789,8.418,20.909,7.4-7.139,5.868-13,1.53-20.909,7.4a24.429,24.429,0,0,0,0-14.8" transform="translate(-356.166 -45.421)"/></g></svg>