<svg xmlns="http://www.w3.org/2000/svg" width="69.532" height="42.643" viewBox="0 0 69.532 42.643"><defs><style>.a{fill:#047e9f;}.b{fill:#fff;}</style></defs><g transform="translate(0)"><path class="a" d="M187.589,77.467c-4.131,1.147-8.72-.229-12.851-3.9,4.131,7.343,10.1,10.785,14.686,9.638,4.36-1.377,7.573-7.573,6.884-16.063-1.606,5.278-4.819,8.95-8.72,10.326m-5.507-12.392v-.459c-.688-2.983-2.983-4.36-5.048-3.213s-2.983,4.36-2.295,7.343c0,.229,0,.229.229.459.459-1.836,1.377-3.672,2.983-4.36s2.983-.918,4.131.229m6.425-3.9a6.28,6.28,0,0,1,5.048,2.065c0-.229,0-.229-.229-.459-.918-2.754-3.672-5.048-5.966-4.819s-3.442,2.754-2.524,5.507c0,.229,0,.229.23.459a4.006,4.006,0,0,1,3.442-2.754M195.85,49.7c.918,2.295,1.836,4.59,2.754,7.114,4.819,16.063,1.606,31.209-7.114,33.733-8.72,2.754-19.735-8.261-24.784-24.095a42.091,42.091,0,0,1-1.606-7.343,68.407,68.407,0,0,0,15.834-2.983A67.969,67.969,0,0,0,195.85,49.7" transform="translate(-165.1 -49.7)"/><path class="a" d="M214.563,57.125c-.229,2.524-.459,4.819-.918,7.343-3.213,16.522-13.08,28.226-22.259,26.39-5.048-.918-8.72-6.2-10.556-13.31a39.261,39.261,0,0,0-.229-18.588,1.38,1.38,0,0,1,.229-.918,38.579,38.579,0,0,1,2.065-7.343,75.38,75.38,0,0,0,15.375,4.819,58.558,58.558,0,0,0,16.293,1.606" transform="translate(-145.031 -48.405)"/><path class="b" d="M188.3,59.276v-.459c.459-2.983,2.524-4.59,4.819-3.672,2.065.918,3.442,4.131,2.983,6.884v.459a6.264,6.264,0,0,0-3.442-4.131,3.854,3.854,0,0,0-4.36.918" transform="translate(-135.061 -42.984)"/><path class="b" d="M188.119,57.313a6.325,6.325,0,0,0-4.819,2.524v-.459c.688-2.983,2.983-5.278,5.278-5.278s3.672,2.295,2.983,5.278v.459c-.229-1.606-1.606-2.524-3.442-2.524" transform="translate(-141.535 -44.003)"/><path class="b" d="M182.1,67.687c2.524-5.737,7.114-8.72,10.556-8.032s6.655,5.048,6.655,11.474c-1.606-3.9-4.36-6.425-7.573-7.114s-6.655.918-9.638,3.672" transform="translate(-143.089 -36.937)"/></g></svg>